<?xml version="1.0" encoding="UTF-8" standalone="no"?>
<!DOCTYPE svg PUBLIC "-//W3C//DTD SVG 1.1//EN"
 "http://www.w3.org/Graphics/SVG/1.1/DTD/svg11.dtd">
<!-- Generated by graphviz version 2.40.1 (20161225.0304)
 -->
<!-- Title: dependencies Pages: 1 -->
<svg width="2022pt" height="284pt"
 viewBox="0.00 0.00 2022.00 284.00" xmlns="http://www.w3.org/2000/svg" xmlns:xlink="http://www.w3.org/1999/xlink">
<g id="graph0" class="graph" transform="scale(1 1) rotate(0) translate(4 280)">
<title>dependencies</title>
<polygon fill="#ffffff" stroke="transparent" points="-4,4 -4,-280 2018,-280 2018,4 -4,4"/>
<text text-anchor="start" x="986.0091" y="-42.4" font-family="sans-serif" font-weight="bold" font-size="14.00" fill="#000000">Legend</text>
<polygon fill="#ffffb3" stroke="transparent" points="773,-10 773,-30 793,-30 793,-10 773,-10"/>
<text text-anchor="start" x="796.629" y="-15.4" font-family="sans-serif" font-size="14.00" fill="#000000"> &#160;Declarations</text>
<polygon fill="#8dd3c7" stroke="transparent" points="886,-10 886,-30 906,-30 906,-10 886,-10"/>
<text text-anchor="start" x="909.7251" y="-15.4" font-family="sans-serif" font-size="14.00" fill="#000000"> &#160;Module</text>
<polygon fill="#80b1d3" stroke="transparent" points="972,-10 972,-30 992,-30 992,-10 972,-10"/>
<text text-anchor="start" x="995.7812" y="-15.4" font-family="sans-serif" font-size="14.00" fill="#000000"> &#160;Bootstrap</text>
<polygon fill="#fdb462" stroke="transparent" points="1069,-10 1069,-30 1089,-30 1089,-10 1069,-10"/>
<text text-anchor="start" x="1092.6732" y="-15.4" font-family="sans-serif" font-size="14.00" fill="#000000"> &#160;Providers</text>
<polygon fill="#fb8072" stroke="transparent" points="1165,-10 1165,-30 1185,-30 1185,-10 1165,-10"/>
<text text-anchor="start" x="1188.7258" y="-15.4" font-family="sans-serif" font-size="14.00" fill="#000000"> &#160;Exports</text>
<g id="clust1" class="cluster">
<title>cluster_AppModule</title>
<polygon fill="none" stroke="#000000" stroke-dasharray="1,5" points="8,-70 8,-268 2006,-268 2006,-70 8,-70"/>
</g>
<g id="clust2" class="cluster">
<title>cluster_AppModule_declarations</title>
<polygon fill="none" stroke="#000000" points="356,-78 356,-130 1998,-130 1998,-78 356,-78"/>
</g>
<g id="clust16" class="cluster">
<title>cluster_AppModule_bootstrap</title>
<polygon fill="none" stroke="#000000" points="1056,-208 1056,-260 1180,-260 1180,-208 1056,-208"/>
</g>
<g id="clust17" class="cluster">
<title>cluster_AppModule_providers</title>
<polygon fill="none" stroke="#000000" points="16,-78 16,-130 348,-130 348,-78 16,-78"/>
</g>
<!-- AppComponent -->
<g id="node1" class="node">
<title>AppComponent</title>
<polygon fill="#ffffb3" stroke="#000000" points="1989.9399,-122 1884.0601,-122 1884.0601,-86 1989.9399,-86 1989.9399,-122"/>
<text text-anchor="middle" x="1937" y="-99.8" font-family="Times,serif" font-size="14.00" fill="#000000">AppComponent</text>
</g>
<!-- AppModule -->
<g id="node12" class="node">
<title>AppModule</title>
<polygon fill="#8dd3c7" stroke="#000000" points="1159.6571,-187 1156.6571,-191 1135.6571,-191 1132.6571,-187 1076.3429,-187 1076.3429,-151 1159.6571,-151 1159.6571,-187"/>
<text text-anchor="middle" x="1118" y="-164.8" font-family="Times,serif" font-size="14.00" fill="#000000">AppModule</text>
</g>
<!-- AppComponent&#45;&gt;AppModule -->
<g id="edge1" class="edge">
<title>AppComponent&#45;&gt;AppModule</title>
<path fill="none" stroke="#000000" d="M1937,-122.0908C1937,-145.1328 1937,-182 1937,-182 1937,-182 1169.7403,-182 1169.7403,-182"/>
<polygon fill="#000000" stroke="#000000" points="1169.7403,-178.5001 1159.7403,-182 1169.7403,-185.5001 1169.7403,-178.5001"/>
</g>
<!-- NavComponent -->
<g id="node2" class="node">
<title>NavComponent</title>
<polygon fill="#ffffb3" stroke="#000000" points="1866.1542,-122 1761.8458,-122 1761.8458,-86 1866.1542,-86 1866.1542,-122"/>
<text text-anchor="middle" x="1814" y="-99.8" font-family="Times,serif" font-size="14.00" fill="#000000">NavComponent</text>
</g>
<!-- NavComponent&#45;&gt;AppModule -->
<g id="edge2" class="edge">
<title>NavComponent&#45;&gt;AppModule</title>
<path fill="none" stroke="#000000" d="M1814,-122.0449C1814,-143.6623 1814,-177 1814,-177 1814,-177 1169.7117,-177 1169.7117,-177"/>
<polygon fill="#000000" stroke="#000000" points="1169.7118,-173.5001 1159.7117,-177 1169.7117,-180.5001 1169.7118,-173.5001"/>
</g>
<!-- LoginComponent -->
<g id="node3" class="node">
<title>LoginComponent</title>
<polygon fill="#ffffb3" stroke="#000000" points="1743.2758,-122 1628.7242,-122 1628.7242,-86 1743.2758,-86 1743.2758,-122"/>
<text text-anchor="middle" x="1686" y="-99.8" font-family="Times,serif" font-size="14.00" fill="#000000">LoginComponent</text>
</g>
<!-- LoginComponent&#45;&gt;AppModule -->
<g id="edge3" class="edge">
<title>LoginComponent&#45;&gt;AppModule</title>
<path fill="none" stroke="#000000" d="M1686,-122.2228C1686,-142.3652 1686,-172 1686,-172 1686,-172 1169.7664,-172 1169.7664,-172"/>
<polygon fill="#000000" stroke="#000000" points="1169.7664,-168.5001 1159.7664,-172 1169.7664,-175.5001 1169.7664,-168.5001"/>
</g>
<!-- SignUpComponent -->
<g id="node4" class="node">
<title>SignUpComponent</title>
<polygon fill="#ffffb3" stroke="#000000" points="1611.1123,-122 1486.8877,-122 1486.8877,-86 1611.1123,-86 1611.1123,-122"/>
<text text-anchor="middle" x="1549" y="-99.8" font-family="Times,serif" font-size="14.00" fill="#000000">SignUpComponent</text>
</g>
<!-- SignUpComponent&#45;&gt;AppModule -->
<g id="edge4" class="edge">
<title>SignUpComponent&#45;&gt;AppModule</title>
<path fill="none" stroke="#000000" d="M1549,-122.2222C1549,-140.8285 1549,-167 1549,-167 1549,-167 1169.7177,-167 1169.7177,-167"/>
<polygon fill="#000000" stroke="#000000" points="1169.7177,-163.5001 1159.7177,-167 1169.7177,-170.5001 1169.7177,-163.5001"/>
</g>
<!-- HomeComponent -->
<g id="node5" class="node">
<title>HomeComponent</title>
<polygon fill="#ffffb3" stroke="#000000" points="1468.5451,-122 1353.4549,-122 1353.4549,-86 1468.5451,-86 1468.5451,-122"/>
<text text-anchor="middle" x="1411" y="-99.8" font-family="Times,serif" font-size="14.00" fill="#000000">HomeComponent</text>
</g>
<!-- HomeComponent&#45;&gt;AppModule -->
<g id="edge5" class="edge">
<title>HomeComponent&#45;&gt;AppModule</title>
<path fill="none" stroke="#000000" d="M1411,-122.0336C1411,-139.0597 1411,-162 1411,-162 1411,-162 1169.6686,-162 1169.6686,-162"/>
<polygon fill="#000000" stroke="#000000" points="1169.6686,-158.5001 1159.6686,-162 1169.6686,-165.5001 1169.6686,-158.5001"/>
</g>
<!-- ProfileComponent -->
<g id="node6" class="node">
<title>ProfileComponent</title>
<polygon fill="#ffffb3" stroke="#000000" points="1335.9328,-122 1216.0672,-122 1216.0672,-86 1335.9328,-86 1335.9328,-122"/>
<text text-anchor="middle" x="1276" y="-99.8" font-family="Times,serif" font-size="14.00" fill="#000000">ProfileComponent</text>
</g>
<!-- ProfileComponent&#45;&gt;AppModule -->
<g id="edge6" class="edge">
<title>ProfileComponent&#45;&gt;AppModule</title>
<path fill="none" stroke="#000000" d="M1276,-122.2396C1276,-137.5706 1276,-157 1276,-157 1276,-157 1169.9263,-157 1169.9263,-157"/>
<polygon fill="#000000" stroke="#000000" points="1169.9263,-153.5001 1159.9263,-157 1169.9262,-160.5001 1169.9263,-153.5001"/>
</g>
<!-- MovieReviewComponent -->
<g id="node7" class="node">
<title>MovieReviewComponent</title>
<polygon fill="#ffffb3" stroke="#000000" points="1198.1456,-122 1037.8544,-122 1037.8544,-86 1198.1456,-86 1198.1456,-122"/>
<text text-anchor="middle" x="1118" y="-99.8" font-family="Times,serif" font-size="14.00" fill="#000000">MovieReviewComponent</text>
</g>
<!-- MovieReviewComponent&#45;&gt;AppModule -->
<g id="edge7" class="edge">
<title>MovieReviewComponent&#45;&gt;AppModule</title>
<path fill="none" stroke="#000000" d="M1118,-122.1061C1118,-122.1061 1118,-140.991 1118,-140.991"/>
<polygon fill="#000000" stroke="#000000" points="1114.5001,-140.9909 1118,-150.991 1121.5001,-140.991 1114.5001,-140.9909"/>
</g>
<!-- TrmComponent -->
<g id="node8" class="node">
<title>TrmComponent</title>
<polygon fill="#ffffb3" stroke="#000000" points="1019.9371,-122 914.0629,-122 914.0629,-86 1019.9371,-86 1019.9371,-122"/>
<text text-anchor="middle" x="967" y="-99.8" font-family="Times,serif" font-size="14.00" fill="#000000">TrmComponent</text>
</g>
<!-- TrmComponent&#45;&gt;AppModule -->
<g id="edge8" class="edge">
<title>TrmComponent&#45;&gt;AppModule</title>
<path fill="none" stroke="#000000" d="M967,-122.2396C967,-137.5706 967,-157 967,-157 967,-157 1066.3389,-157 1066.3389,-157"/>
<polygon fill="#000000" stroke="#000000" points="1066.3389,-160.5001 1076.3389,-157 1066.3388,-153.5001 1066.3389,-160.5001"/>
</g>
<!-- SearchResultsComponent -->
<g id="node9" class="node">
<title>SearchResultsComponent</title>
<polygon fill="#ffffb3" stroke="#000000" points="896.1414,-122 735.8586,-122 735.8586,-86 896.1414,-86 896.1414,-122"/>
<text text-anchor="middle" x="816" y="-99.8" font-family="Times,serif" font-size="14.00" fill="#000000">SearchResultsComponent</text>
</g>
<!-- SearchResultsComponent&#45;&gt;AppModule -->
<g id="edge9" class="edge">
<title>SearchResultsComponent&#45;&gt;AppModule</title>
<path fill="none" stroke="#000000" d="M816,-122.0336C816,-139.0597 816,-162 816,-162 816,-162 1066.3253,-162 1066.3253,-162"/>
<polygon fill="#000000" stroke="#000000" points="1066.3253,-165.5001 1076.3253,-162 1066.3252,-158.5001 1066.3253,-165.5001"/>
</g>
<!-- MovieswatchedComponent -->
<g id="node10" class="node">
<title>MovieswatchedComponent</title>
<polygon fill="#ffffb3" stroke="#000000" points="717.9678,-122 548.0322,-122 548.0322,-86 717.9678,-86 717.9678,-122"/>
<text text-anchor="middle" x="633" y="-99.8" font-family="Times,serif" font-size="14.00" fill="#000000">MovieswatchedComponent</text>
</g>
<!-- MovieswatchedComponent&#45;&gt;AppModule -->
<g id="edge10" class="edge">
<title>MovieswatchedComponent&#45;&gt;AppModule</title>
<path fill="none" stroke="#000000" d="M633,-122.2222C633,-140.8285 633,-167 633,-167 633,-167 1066.2294,-167 1066.2294,-167"/>
<polygon fill="#000000" stroke="#000000" points="1066.2294,-170.5001 1076.2294,-167 1066.2294,-163.5001 1066.2294,-170.5001"/>
</g>
<!-- RecommendedComponent -->
<g id="node11" class="node">
<title>RecommendedComponent</title>
<polygon fill="#ffffb3" stroke="#000000" points="529.8089,-122 364.1911,-122 364.1911,-86 529.8089,-86 529.8089,-122"/>
<text text-anchor="middle" x="447" y="-99.8" font-family="Times,serif" font-size="14.00" fill="#000000">RecommendedComponent</text>
</g>
<!-- RecommendedComponent&#45;&gt;AppModule -->
<g id="edge11" class="edge">
<title>RecommendedComponent&#45;&gt;AppModule</title>
<path fill="none" stroke="#000000" d="M447,-122.2228C447,-142.3652 447,-172 447,-172 447,-172 1066.2795,-172 1066.2795,-172"/>
<polygon fill="#000000" stroke="#000000" points="1066.2795,-175.5001 1076.2795,-172 1066.2794,-168.5001 1066.2795,-175.5001"/>
</g>
<!-- AppComponent  -->
<g id="node13" class="node">
<title>AppComponent </title>
<polygon fill="#80b1d3" stroke="#000000" points="1172.439,-252 1063.561,-252 1063.561,-216 1172.439,-216 1172.439,-252"/>
<text text-anchor="middle" x="1118" y="-229.8" font-family="Times,serif" font-size="14.00" fill="#000000">AppComponent </text>
</g>
<!-- AppModule&#45;&gt;AppComponent  -->
<g id="edge12" class="edge">
<title>AppModule&#45;&gt;AppComponent </title>
<path fill="none" stroke="#000000" stroke-dasharray="1,5" d="M1118,-187.1061C1118,-187.1061 1118,-205.991 1118,-205.991"/>
<polygon fill="#000000" stroke="#000000" points="1114.5001,-205.9909 1118,-215.991 1121.5001,-205.991 1114.5001,-205.9909"/>
</g>
<!-- UserService -->
<g id="node14" class="node">
<title>UserService</title>
<ellipse fill="#fdb462" stroke="#000000" cx="282" cy="-104" rx="58.4415" ry="18"/>
<text text-anchor="middle" x="282" y="-99.8" font-family="Times,serif" font-size="14.00" fill="#000000">UserService</text>
</g>
<!-- UserService&#45;&gt;AppModule -->
<g id="edge13" class="edge">
<title>UserService&#45;&gt;AppModule</title>
<path fill="none" stroke="#000000" d="M282,-122.0449C282,-143.6623 282,-177 282,-177 282,-177 1066.2566,-177 1066.2566,-177"/>
<polygon fill="#000000" stroke="#000000" points="1066.2566,-180.5001 1076.2566,-177 1066.2566,-173.5001 1066.2566,-180.5001"/>
</g>
<!-- ElasticsearchService -->
<g id="node15" class="node">
<title>ElasticsearchService</title>
<ellipse fill="#fdb462" stroke="#000000" cx="115" cy="-104" rx="90.8607" ry="18"/>
<text text-anchor="middle" x="115" y="-99.8" font-family="Times,serif" font-size="14.00" fill="#000000">ElasticsearchService</text>
</g>
<!-- ElasticsearchService&#45;&gt;AppModule -->
<g id="edge14" class="edge">
<title>ElasticsearchService&#45;&gt;AppModule</title>
<path fill="none" stroke="#000000" d="M115,-122.0908C115,-145.1328 115,-182 115,-182 115,-182 1066.1793,-182 1066.1793,-182"/>
<polygon fill="#000000" stroke="#000000" points="1066.1793,-185.5001 1076.1793,-182 1066.1793,-178.5001 1066.1793,-185.5001"/>
</g>
</g>
</svg>
