<?xml version="1.0" encoding="UTF-8" standalone="no"?>
<!DOCTYPE svg PUBLIC "-//W3C//DTD SVG 1.1//EN"
 "http://www.w3.org/Graphics/SVG/1.1/DTD/svg11.dtd">
<!-- Generated by graphviz version 2.40.1 (20161225.0304)
 -->
<!-- Title: dependencies Pages: 1 -->
<svg width="1838pt" height="284pt"
 viewBox="0.00 0.00 1838.00 284.00" xmlns="http://www.w3.org/2000/svg" xmlns:xlink="http://www.w3.org/1999/xlink">
<g id="graph0" class="graph" transform="scale(1 1) rotate(0) translate(4 280)">
<title>dependencies</title>
<polygon fill="#ffffff" stroke="transparent" points="-4,4 -4,-280 1834,-280 1834,4 -4,4"/>
<text text-anchor="start" x="894.0091" y="-42.4" font-family="sans-serif" font-weight="bold" font-size="14.00" fill="#000000">Legend</text>
<polygon fill="#ffffb3" stroke="transparent" points="681,-10 681,-30 701,-30 701,-10 681,-10"/>
<text text-anchor="start" x="704.629" y="-15.4" font-family="sans-serif" font-size="14.00" fill="#000000"> &#160;Declarations</text>
<polygon fill="#8dd3c7" stroke="transparent" points="794,-10 794,-30 814,-30 814,-10 794,-10"/>
<text text-anchor="start" x="817.7251" y="-15.4" font-family="sans-serif" font-size="14.00" fill="#000000"> &#160;Module</text>
<polygon fill="#80b1d3" stroke="transparent" points="880,-10 880,-30 900,-30 900,-10 880,-10"/>
<text text-anchor="start" x="903.7812" y="-15.4" font-family="sans-serif" font-size="14.00" fill="#000000"> &#160;Bootstrap</text>
<polygon fill="#fdb462" stroke="transparent" points="977,-10 977,-30 997,-30 997,-10 977,-10"/>
<text text-anchor="start" x="1000.6732" y="-15.4" font-family="sans-serif" font-size="14.00" fill="#000000"> &#160;Providers</text>
<polygon fill="#fb8072" stroke="transparent" points="1073,-10 1073,-30 1093,-30 1093,-10 1073,-10"/>
<text text-anchor="start" x="1096.7258" y="-15.4" font-family="sans-serif" font-size="14.00" fill="#000000"> &#160;Exports</text>
<g id="clust1" class="cluster">
<title>cluster_AppModule</title>
<polygon fill="none" stroke="#000000" stroke-dasharray="1,5" points="8,-70 8,-268 1822,-268 1822,-70 8,-70"/>
</g>
<g id="clust2" class="cluster">
<title>cluster_AppModule_declarations</title>
<polygon fill="none" stroke="#000000" points="356,-78 356,-130 1814,-130 1814,-78 356,-78"/>
</g>
<g id="clust15" class="cluster">
<title>cluster_AppModule_bootstrap</title>
<polygon fill="none" stroke="#000000" points="951,-208 951,-260 1075,-260 1075,-208 951,-208"/>
</g>
<g id="clust16" class="cluster">
<title>cluster_AppModule_providers</title>
<polygon fill="none" stroke="#000000" points="16,-78 16,-130 348,-130 348,-78 16,-78"/>
</g>
<!-- AppComponent -->
<g id="node1" class="node">
<title>AppComponent</title>
<polygon fill="#ffffb3" stroke="#000000" points="1805.9399,-122 1700.0601,-122 1700.0601,-86 1805.9399,-86 1805.9399,-122"/>
<text text-anchor="middle" x="1753" y="-99.8" font-family="Times,serif" font-size="14.00" fill="#000000">AppComponent</text>
</g>
<!-- AppModule -->
<g id="node11" class="node">
<title>AppModule</title>
<polygon fill="#8dd3c7" stroke="#000000" points="1054.6571,-187 1051.6571,-191 1030.6571,-191 1027.6571,-187 971.3429,-187 971.3429,-151 1054.6571,-151 1054.6571,-187"/>
<text text-anchor="middle" x="1013" y="-164.8" font-family="Times,serif" font-size="14.00" fill="#000000">AppModule</text>
</g>
<!-- AppComponent&#45;&gt;AppModule -->
<g id="edge1" class="edge">
<title>AppComponent&#45;&gt;AppModule</title>
<path fill="none" stroke="#000000" d="M1753,-122.2479C1753,-145.0179 1753,-181 1753,-181 1753,-181 1064.9059,-181 1064.9059,-181"/>
<polygon fill="#000000" stroke="#000000" points="1064.9059,-177.5001 1054.9059,-181 1064.9058,-184.5001 1064.9059,-177.5001"/>
</g>
<!-- NavComponent -->
<g id="node2" class="node">
<title>NavComponent</title>
<polygon fill="#ffffb3" stroke="#000000" points="1682.1542,-122 1577.8458,-122 1577.8458,-86 1682.1542,-86 1682.1542,-122"/>
<text text-anchor="middle" x="1630" y="-99.8" font-family="Times,serif" font-size="14.00" fill="#000000">NavComponent</text>
</g>
<!-- NavComponent&#45;&gt;AppModule -->
<g id="edge2" class="edge">
<title>NavComponent&#45;&gt;AppModule</title>
<path fill="none" stroke="#000000" d="M1630,-122.2843C1630,-143.3211 1630,-175 1630,-175 1630,-175 1064.9238,-175 1064.9238,-175"/>
<polygon fill="#000000" stroke="#000000" points="1064.9239,-171.5001 1054.9238,-175 1064.9238,-178.5001 1064.9239,-171.5001"/>
</g>
<!-- LoginComponent -->
<g id="node3" class="node">
<title>LoginComponent</title>
<polygon fill="#ffffb3" stroke="#000000" points="1559.2758,-122 1444.7242,-122 1444.7242,-86 1559.2758,-86 1559.2758,-122"/>
<text text-anchor="middle" x="1502" y="-99.8" font-family="Times,serif" font-size="14.00" fill="#000000">LoginComponent</text>
</g>
<!-- LoginComponent&#45;&gt;AppModule -->
<g id="edge3" class="edge">
<title>LoginComponent&#45;&gt;AppModule</title>
<path fill="none" stroke="#000000" d="M1502,-122.1061C1502,-141.3391 1502,-169 1502,-169 1502,-169 1064.6919,-169 1064.6919,-169"/>
<polygon fill="#000000" stroke="#000000" points="1064.6919,-165.5001 1054.6919,-169 1064.6918,-172.5001 1064.6919,-165.5001"/>
</g>
<!-- SignUpComponent -->
<g id="node4" class="node">
<title>SignUpComponent</title>
<polygon fill="#ffffb3" stroke="#000000" points="1427.1123,-122 1302.8877,-122 1302.8877,-86 1427.1123,-86 1427.1123,-122"/>
<text text-anchor="middle" x="1365" y="-99.8" font-family="Times,serif" font-size="14.00" fill="#000000">SignUpComponent</text>
</g>
<!-- SignUpComponent&#45;&gt;AppModule -->
<g id="edge4" class="edge">
<title>SignUpComponent&#45;&gt;AppModule</title>
<path fill="none" stroke="#000000" d="M1365,-122.0225C1365,-139.3734 1365,-163 1365,-163 1365,-163 1064.7613,-163 1064.7613,-163"/>
<polygon fill="#000000" stroke="#000000" points="1064.7613,-159.5001 1054.7613,-163 1064.7613,-166.5001 1064.7613,-159.5001"/>
</g>
<!-- HomeComponent -->
<g id="node5" class="node">
<title>HomeComponent</title>
<polygon fill="#ffffb3" stroke="#000000" points="1284.5451,-122 1169.4549,-122 1169.4549,-86 1284.5451,-86 1284.5451,-122"/>
<text text-anchor="middle" x="1227" y="-99.8" font-family="Times,serif" font-size="14.00" fill="#000000">HomeComponent</text>
</g>
<!-- HomeComponent&#45;&gt;AppModule -->
<g id="edge5" class="edge">
<title>HomeComponent&#45;&gt;AppModule</title>
<path fill="none" stroke="#000000" d="M1227,-122.2396C1227,-137.5706 1227,-157 1227,-157 1227,-157 1064.7694,-157 1064.7694,-157"/>
<polygon fill="#000000" stroke="#000000" points="1064.7694,-153.5001 1054.7694,-157 1064.7693,-160.5001 1064.7694,-153.5001"/>
</g>
<!-- ProfileComponent -->
<g id="node6" class="node">
<title>ProfileComponent</title>
<polygon fill="#ffffb3" stroke="#000000" points="1151.9328,-122 1032.0672,-122 1032.0672,-86 1151.9328,-86 1151.9328,-122"/>
<text text-anchor="middle" x="1092" y="-99.8" font-family="Times,serif" font-size="14.00" fill="#000000">ProfileComponent</text>
</g>
<!-- ProfileComponent&#45;&gt;AppModule -->
<g id="edge6" class="edge">
<title>ProfileComponent&#45;&gt;AppModule</title>
<path fill="none" stroke="#000000" d="M1043.5561,-122.1061C1043.5561,-122.1061 1043.5561,-140.991 1043.5561,-140.991"/>
<polygon fill="#000000" stroke="#000000" points="1040.0562,-140.9909 1043.5561,-150.991 1047.0562,-140.991 1040.0562,-140.9909"/>
</g>
<!-- MovieReviewComponent -->
<g id="node7" class="node">
<title>MovieReviewComponent</title>
<polygon fill="#ffffb3" stroke="#000000" points="1014.1456,-122 853.8544,-122 853.8544,-86 1014.1456,-86 1014.1456,-122"/>
<text text-anchor="middle" x="934" y="-99.8" font-family="Times,serif" font-size="14.00" fill="#000000">MovieReviewComponent</text>
</g>
<!-- MovieReviewComponent&#45;&gt;AppModule -->
<g id="edge7" class="edge">
<title>MovieReviewComponent&#45;&gt;AppModule</title>
<path fill="none" stroke="#000000" d="M992.7472,-122.1061C992.7472,-122.1061 992.7472,-140.991 992.7472,-140.991"/>
<polygon fill="#000000" stroke="#000000" points="989.2473,-140.9909 992.7472,-150.991 996.2473,-140.991 989.2473,-140.9909"/>
</g>
<!-- TrmComponent -->
<g id="node8" class="node">
<title>TrmComponent</title>
<polygon fill="#ffffb3" stroke="#000000" points="835.9371,-122 730.0629,-122 730.0629,-86 835.9371,-86 835.9371,-122"/>
<text text-anchor="middle" x="783" y="-99.8" font-family="Times,serif" font-size="14.00" fill="#000000">TrmComponent</text>
</g>
<!-- TrmComponent&#45;&gt;AppModule -->
<g id="edge8" class="edge">
<title>TrmComponent&#45;&gt;AppModule</title>
<path fill="none" stroke="#000000" d="M783,-122.2396C783,-137.5706 783,-157 783,-157 783,-157 961.0819,-157 961.0819,-157"/>
<polygon fill="#000000" stroke="#000000" points="961.0819,-160.5001 971.0819,-157 961.0819,-153.5001 961.0819,-160.5001"/>
</g>
<!-- SearchResultsComponent -->
<g id="node9" class="node">
<title>SearchResultsComponent</title>
<polygon fill="#ffffb3" stroke="#000000" points="712.1414,-122 551.8586,-122 551.8586,-86 712.1414,-86 712.1414,-122"/>
<text text-anchor="middle" x="632" y="-99.8" font-family="Times,serif" font-size="14.00" fill="#000000">SearchResultsComponent</text>
</g>
<!-- SearchResultsComponent&#45;&gt;AppModule -->
<g id="edge9" class="edge">
<title>SearchResultsComponent&#45;&gt;AppModule</title>
<path fill="none" stroke="#000000" d="M632,-122.0225C632,-139.3734 632,-163 632,-163 632,-163 961.1365,-163 961.1365,-163"/>
<polygon fill="#000000" stroke="#000000" points="961.1365,-166.5001 971.1365,-163 961.1364,-159.5001 961.1365,-166.5001"/>
</g>
<!-- MovieswatchedComponent -->
<g id="node10" class="node">
<title>MovieswatchedComponent</title>
<polygon fill="#ffffb3" stroke="#000000" points="533.9678,-122 364.0322,-122 364.0322,-86 533.9678,-86 533.9678,-122"/>
<text text-anchor="middle" x="449" y="-99.8" font-family="Times,serif" font-size="14.00" fill="#000000">MovieswatchedComponent</text>
</g>
<!-- MovieswatchedComponent&#45;&gt;AppModule -->
<g id="edge10" class="edge">
<title>MovieswatchedComponent&#45;&gt;AppModule</title>
<path fill="none" stroke="#000000" d="M449,-122.1061C449,-141.3391 449,-169 449,-169 449,-169 961.0691,-169 961.0691,-169"/>
<polygon fill="#000000" stroke="#000000" points="961.0691,-172.5001 971.0691,-169 961.0691,-165.5001 961.0691,-172.5001"/>
</g>
<!-- AppComponent  -->
<g id="node12" class="node">
<title>AppComponent </title>
<polygon fill="#80b1d3" stroke="#000000" points="1067.439,-252 958.561,-252 958.561,-216 1067.439,-216 1067.439,-252"/>
<text text-anchor="middle" x="1013" y="-229.8" font-family="Times,serif" font-size="14.00" fill="#000000">AppComponent </text>
</g>
<!-- AppModule&#45;&gt;AppComponent  -->
<g id="edge11" class="edge">
<title>AppModule&#45;&gt;AppComponent </title>
<path fill="none" stroke="#000000" stroke-dasharray="1,5" d="M1013,-187.1061C1013,-187.1061 1013,-205.991 1013,-205.991"/>
<polygon fill="#000000" stroke="#000000" points="1009.5001,-205.9909 1013,-215.991 1016.5001,-205.991 1009.5001,-205.9909"/>
</g>
<!-- UserService -->
<g id="node13" class="node">
<title>UserService</title>
<ellipse fill="#fdb462" stroke="#000000" cx="282" cy="-104" rx="58.4415" ry="18"/>
<text text-anchor="middle" x="282" y="-99.8" font-family="Times,serif" font-size="14.00" fill="#000000">UserService</text>
</g>
<!-- UserService&#45;&gt;AppModule -->
<g id="edge12" class="edge">
<title>UserService&#45;&gt;AppModule</title>
<path fill="none" stroke="#000000" d="M282,-122.2843C282,-143.3211 282,-175 282,-175 282,-175 961.3386,-175 961.3386,-175"/>
<polygon fill="#000000" stroke="#000000" points="961.3387,-178.5001 971.3386,-175 961.3386,-171.5001 961.3387,-178.5001"/>
</g>
<!-- ElasticsearchService -->
<g id="node14" class="node">
<title>ElasticsearchService</title>
<ellipse fill="#fdb462" stroke="#000000" cx="115" cy="-104" rx="90.8607" ry="18"/>
<text text-anchor="middle" x="115" y="-99.8" font-family="Times,serif" font-size="14.00" fill="#000000">ElasticsearchService</text>
</g>
<!-- ElasticsearchService&#45;&gt;AppModule -->
<g id="edge13" class="edge">
<title>ElasticsearchService&#45;&gt;AppModule</title>
<path fill="none" stroke="#000000" d="M115,-122.2479C115,-145.0179 115,-181 115,-181 115,-181 961.1908,-181 961.1908,-181"/>
<polygon fill="#000000" stroke="#000000" points="961.1908,-184.5001 971.1908,-181 961.1908,-177.5001 961.1908,-184.5001"/>
</g>
</g>
</svg>
